<svg width="120" height="79" viewBox="0 0 119 80" fill="none" xmlns="http://www.w3.org/2000/svg">
<path d="M115.923 36.0278C115.923 55.1453 100.425 70.6431 81.3075 70.6431C62.19 70.6431 46.6921 55.1453 46.6921 36.0278C46.6921 16.9103 62.19 1.41245 81.3075 1.41245C100.425 1.41245 115.923 16.9103 115.923 36.0278ZM67.4613 36.0278C67.4613 43.6748 73.6605 49.8739 81.3075 49.8739C88.9545 49.8739 95.1536 43.6748 95.1536 36.0278C95.1536 28.3808 88.9545 22.1816 81.3075 22.1816C73.6605 22.1816 67.4613 28.3808 67.4613 36.0278Z" fill="#237804"/>
<path d="M40.5386 51.5662C40.5386 49.357 42.3294 47.5662 44.5386 47.5662H119V70.6431H40.5386V51.5662Z" fill="#237804"/>
<path d="M52.5398 67.1555C47.0858 69.8634 41.014 71.0848 34.9371 70.6962C28.8603 70.3076 22.9935 68.3229 17.9288 64.9424C12.8641 61.5619 8.78084 56.9052 6.09101 51.4422C3.40118 45.9793 2.20001 39.9034 2.60874 33.8279C3.01746 27.7524 5.02162 21.8922 8.41894 16.8388C11.8163 11.7854 16.4865 7.71754 21.9583 5.04585C27.4302 2.37416 33.51 1.19316 39.5841 1.62205C45.6582 2.05093 51.5117 4.07453 56.5538 7.48859C50.4106 12.6937 47.7293 16.3328 44.9091 24.6863C42.8923 23.3207 40.5509 22.5112 38.1212 22.3397C35.6916 22.1681 33.2597 22.6405 31.0709 23.7092C28.8822 24.7779 27.0141 26.405 25.6552 28.4264C24.2963 30.4477 23.4946 32.7918 23.3311 35.222C23.1676 37.6522 23.6481 40.0826 24.724 42.2677C25.7999 44.4529 27.4333 46.3156 29.4591 47.6678C31.485 49.02 33.8317 49.8139 36.2625 49.9693C38.6932 50.1248 41.1219 49.6362 43.3035 48.5531L52.5398 67.1555Z" fill="#237804"/>
<path d="M66.0775 78.8881C65.7855 78.8881 65.5215 78.8381 65.2855 78.7381C65.0535 78.6381 64.8695 78.4941 64.7335 78.3061C64.5975 78.1181 64.5275 77.8961 64.5235 77.6401H65.4235C65.4355 77.8121 65.4955 77.9481 65.6035 78.0481C65.7155 78.1481 65.8675 78.1981 66.0595 78.1981C66.2555 78.1981 66.4095 78.1521 66.5215 78.0601C66.6335 77.9641 66.6895 77.8401 66.6895 77.6881C66.6895 77.5641 66.6515 77.4621 66.5755 77.3821C66.4995 77.3021 66.4035 77.2401 66.2875 77.1961C66.1755 77.1481 66.0195 77.0961 65.8195 77.0401C65.5475 76.9601 65.3255 76.8821 65.1535 76.8061C64.9855 76.7261 64.8395 76.6081 64.7155 76.4521C64.5955 76.2921 64.5355 76.0801 64.5355 75.8161C64.5355 75.5681 64.5975 75.3521 64.7215 75.1681C64.8455 74.9841 65.0195 74.8441 65.2435 74.7481C65.4675 74.6481 65.7235 74.5981 66.0115 74.5981C66.4435 74.5981 66.7935 74.7041 67.0615 74.9161C67.3335 75.1241 67.4835 75.4161 67.5115 75.7921H66.5875C66.5795 75.6481 66.5175 75.5301 66.4015 75.4381C66.2895 75.3421 66.1395 75.2941 65.9515 75.2941C65.7875 75.2941 65.6555 75.3361 65.5555 75.4201C65.4595 75.5041 65.4115 75.6261 65.4115 75.7861C65.4115 75.8981 65.4475 75.9921 65.5195 76.0681C65.5955 76.1401 65.6875 76.2001 65.7955 76.2481C65.9075 76.2921 66.0635 76.3441 66.2635 76.4041C66.5355 76.4841 66.7575 76.5641 66.9295 76.6441C67.1015 76.7241 67.2495 76.8441 67.3735 77.0041C67.4975 77.1641 67.5595 77.3741 67.5595 77.6341C67.5595 77.8581 67.5015 78.0661 67.3855 78.2581C67.2695 78.4501 67.0995 78.6041 66.8755 78.7201C66.6515 78.8321 66.3855 78.8881 66.0775 78.8881ZM70.2318 78.8881C69.8398 78.8881 69.4798 78.7961 69.1518 78.6121C68.8238 78.4281 68.5638 78.1741 68.3718 77.8501C68.1798 77.5221 68.0838 77.1521 68.0838 76.7401C68.0838 76.3321 68.1798 75.9661 68.3718 75.6421C68.5638 75.3141 68.8238 75.0581 69.1518 74.8741C69.4798 74.6901 69.8398 74.5981 70.2318 74.5981C70.6278 74.5981 70.9878 74.6901 71.3118 74.8741C71.6398 75.0581 71.8978 75.3141 72.0858 75.6421C72.2778 75.9661 72.3738 76.3321 72.3738 76.7401C72.3738 77.1521 72.2778 77.5221 72.0858 77.8501C71.8978 78.1741 71.6398 78.4281 71.3118 78.6121C70.9838 78.7961 70.6238 78.8881 70.2318 78.8881ZM70.2318 78.1381C70.4838 78.1381 70.7058 78.0821 70.8978 77.9701C71.0898 77.8541 71.2398 77.6901 71.3478 77.4781C71.4558 77.2661 71.5098 77.0201 71.5098 76.7401C71.5098 76.4601 71.4558 76.2161 71.3478 76.0081C71.2398 75.7961 71.0898 75.6341 70.8978 75.5221C70.7058 75.4101 70.4838 75.3541 70.2318 75.3541C69.9798 75.3541 69.7558 75.4101 69.5598 75.5221C69.3678 75.6341 69.2178 75.7961 69.1098 76.0081C69.0018 76.2161 68.9478 76.4601 68.9478 76.7401C68.9478 77.0201 69.0018 77.2661 69.1098 77.4781C69.2178 77.6901 69.3678 77.8541 69.5598 77.9701C69.7558 78.0821 69.9798 78.1381 70.2318 78.1381ZM77.3444 75.9181C77.2484 75.7421 77.1164 75.6081 76.9484 75.5161C76.7804 75.4241 76.5844 75.3781 76.3604 75.3781C76.1124 75.3781 75.8924 75.4341 75.7004 75.5461C75.5084 75.6581 75.3584 75.8181 75.2504 76.0261C75.1424 76.2341 75.0884 76.4741 75.0884 76.7461C75.0884 77.0261 75.1424 77.2701 75.2504 77.4781C75.3624 77.6861 75.5164 77.8461 75.7124 77.9581C75.9084 78.0701 76.1364 78.1261 76.3964 78.1261C76.7164 78.1261 76.9784 78.0421 77.1824 77.8741C77.3864 77.7021 77.5204 77.4641 77.5844 77.1601H76.1444V76.5181H78.4124V77.2501C78.3564 77.5421 78.2364 77.8121 78.0524 78.0601C77.8684 78.3081 77.6304 78.5081 77.3384 78.6601C77.0504 78.8081 76.7264 78.8821 76.3664 78.8821C75.9624 78.8821 75.5964 78.7921 75.2684 78.6121C74.9444 78.4281 74.6884 78.1741 74.5004 77.8501C74.3164 77.5261 74.2244 77.1581 74.2244 76.7461C74.2244 76.3341 74.3164 75.9661 74.5004 75.6421C74.6884 75.3141 74.9444 75.0601 75.2684 74.8801C75.5964 74.6961 75.9604 74.6041 76.3604 74.6041C76.8324 74.6041 77.2424 74.7201 77.5904 74.9521C77.9384 75.1801 78.1784 75.5021 78.3104 75.9181H77.3444ZM81.1938 78.8461L80.2698 77.2141H79.8738V78.8461H79.0338V74.6581H80.6058C80.9298 74.6581 81.2058 74.7161 81.4338 74.8321C81.6618 74.9441 81.8318 75.0981 81.9438 75.2941C82.0598 75.4861 82.1178 75.7021 82.1178 75.9421C82.1178 76.2181 82.0378 76.4681 81.8778 76.6921C81.7178 76.9121 81.4798 77.0641 81.1638 77.1481L82.1658 78.8461H81.1938ZM79.8738 76.5841H80.5758C80.8038 76.5841 80.9738 76.5301 81.0858 76.4221C81.1978 76.3101 81.2538 76.1561 81.2538 75.9601C81.2538 75.7681 81.1978 75.6201 81.0858 75.5161C80.9738 75.4081 80.8038 75.3541 80.5758 75.3541H79.8738V76.5841ZM84.8216 78.8881C84.4296 78.8881 84.0696 78.7961 83.7416 78.6121C83.4136 78.4281 83.1536 78.1741 82.9616 77.8501C82.7696 77.5221 82.6736 77.1521 82.6736 76.7401C82.6736 76.3321 82.7696 75.9661 82.9616 75.6421C83.1536 75.3141 83.4136 75.0581 83.7416 74.8741C84.0696 74.6901 84.4296 74.5981 84.8216 74.5981C85.2176 74.5981 85.5776 74.6901 85.9016 74.8741C86.2296 75.0581 86.4876 75.3141 86.6756 75.6421C86.8676 75.9661 86.9636 76.3321 86.9636 76.7401C86.9636 77.1521 86.8676 77.5221 86.6756 77.8501C86.4876 78.1741 86.2296 78.4281 85.9016 78.6121C85.5736 78.7961 85.2136 78.8881 84.8216 78.8881ZM84.8216 78.1381C85.0736 78.1381 85.2956 78.0821 85.4876 77.9701C85.6796 77.8541 85.8296 77.6901 85.9376 77.4781C86.0456 77.2661 86.0996 77.0201 86.0996 76.7401C86.0996 76.4601 86.0456 76.2161 85.9376 76.0081C85.8296 75.7961 85.6796 75.6341 85.4876 75.5221C85.2956 75.4101 85.0736 75.3541 84.8216 75.3541C84.5696 75.3541 84.3456 75.4101 84.1496 75.5221C83.9576 75.6341 83.8076 75.7961 83.6996 76.0081C83.5916 76.2161 83.5376 76.4601 83.5376 76.7401C83.5376 77.0201 83.5916 77.2661 83.6996 77.4781C83.8076 77.6901 83.9576 77.8541 84.1496 77.9701C84.3456 78.0821 84.5696 78.1381 84.8216 78.1381ZM88.4165 74.6581V77.2501C88.4165 77.5341 88.4905 77.7521 88.6385 77.9041C88.7865 78.0521 88.9945 78.1261 89.2625 78.1261C89.5345 78.1261 89.7445 78.0521 89.8925 77.9041C90.0405 77.7521 90.1145 77.5341 90.1145 77.2501V74.6581H90.9605V77.2441C90.9605 77.6001 90.8825 77.9021 90.7265 78.1501C90.5745 78.3941 90.3685 78.5781 90.1085 78.7021C89.8525 78.8261 89.5665 78.8881 89.2505 78.8881C88.9385 78.8881 88.6545 78.8261 88.3985 78.7021C88.1465 78.5781 87.9465 78.3941 87.7985 78.1501C87.6505 77.9021 87.5765 77.6001 87.5765 77.2441V74.6581H88.4165ZM94.8261 75.9541C94.8261 76.1781 94.7721 76.3881 94.6641 76.5841C94.5601 76.7801 94.3941 76.9381 94.1661 77.0581C93.9421 77.1781 93.6581 77.2381 93.3141 77.2381H92.6121V78.8461H91.7721V74.6581H93.3141C93.6381 74.6581 93.9141 74.7141 94.1421 74.8261C94.3701 74.9381 94.5401 75.0921 94.6521 75.2881C94.7681 75.4841 94.8261 75.7061 94.8261 75.9541ZM93.2781 76.5601C93.5101 76.5601 93.6821 76.5081 93.7941 76.4041C93.9061 76.2961 93.9621 76.1461 93.9621 75.9541C93.9621 75.5461 93.7341 75.3421 93.2781 75.3421H92.6121V76.5601H93.2781ZM97.6922 78.1801H99.0722V78.8461H96.8522V74.6581H97.6922V78.1801ZM100.446 78.1801H101.826V78.8461H99.6061V74.6581H100.446V78.1801ZM102.156 76.7461C102.156 76.3341 102.248 75.9661 102.432 75.6421C102.62 75.3141 102.874 75.0601 103.194 74.8801C103.518 74.6961 103.88 74.6041 104.28 74.6041C104.748 74.6041 105.158 74.7241 105.51 74.9641C105.862 75.2041 106.108 75.5361 106.248 75.9601H105.282C105.186 75.7601 105.05 75.6101 104.874 75.5101C104.702 75.4101 104.502 75.3601 104.274 75.3601C104.03 75.3601 103.812 75.4181 103.62 75.5341C103.432 75.6461 103.284 75.8061 103.176 76.0141C103.072 76.2221 103.02 76.4661 103.02 76.7461C103.02 77.0221 103.072 77.2661 103.176 77.4781C103.284 77.6861 103.432 77.8481 103.62 77.9641C103.812 78.0761 104.03 78.1321 104.274 78.1321C104.502 78.1321 104.702 78.0821 104.874 77.9821C105.05 77.8781 105.186 77.7261 105.282 77.5261H106.248C106.108 77.9541 105.862 78.2881 105.51 78.5281C105.162 78.7641 104.752 78.8821 104.28 78.8821C103.88 78.8821 103.518 78.7921 103.194 78.6121C102.874 78.4281 102.62 78.1741 102.432 77.8501C102.248 77.5261 102.156 77.1581 102.156 76.7461Z" fill="#237804"/>
</svg>
